<mxfile host="app.diagrams.net" modified="2024-02-13T15:20:36.582Z" agent="Mozilla/5.0 (Windows NT 10.0; Win64; x64) AppleWebKit/537.36 (KHTML, like Gecko) Chrome/120.0.0.0 Safari/537.36" version="23.1.4" etag="z2GU9740WVH8ccvTpFRK" type="github">
  <diagram name="Pagina-1" id="_oNcsa9qoHgxWCWviPdT">
    <mxGraphModel>
      <root>
        <mxCell id="0" />
        <mxCell id="1" parent="0" />
      </root>
    </mxGraphModel>
  </diagram>
</mxfile>
